PathFileType	4	(X/Y/Z)	Patient4_TMGait_0pt3_01_left_04.trc.trc
DataRate	CameraRate	NumFrames	NumMarkers	Units	OrigDataRate	OrigDataStartFrame	OrigNumFrames
52.434456928839	52.434456928839	4	33	mm	52.434456928839	1	       141
Frame#	Time	Sacral			L.Shoulder			Chest			R.Shoulder			Neck			R.ASIS			L.ASIS			R.Thigh.Superior			R.Thigh.Lateral			R.Thigh.Inferior			R.Patella			L.Thigh.Superior			L.Thigh.Lateral			L.Thigh.Inferior			L.Patella			L.Shank.Superior			L.Shank.Lateral			L.Shank.Inferior			R.Shank.Superior			R.Shank.Lateral			R.Shank.Inferior			R.Heel			R.Midfoot.Superior			R.Midfoot.Lateral			R.Toe			L.Heel			L.Midfoot.Lateral			L.Midfoot.Superior			L.Toe			L.Elbow			L.Wrist			R.Elbow			R.Wrist			
		X1	Y1	Z1	X2	Y2	Z2	X3	Y3	Z3	X4	Y4	Z4	X5	Y5	Z5	X6	Y6	Z6	X7	Y7	Z7	X8	Y8	Z8	X9	Y9	Z9	X10	Y10	Z10	X11	Y11	Z11	X12	Y12	Z12	X13	Y13	Z13	X14	Y14	Z14	X15	Y15	Z15	X16	Y16	Z16	X17	Y17	Z17	X18	Y18	Z18	X19	Y19	Z19	X20	Y20	Z20	X21	Y21	Z21	X22	Y22	Z22	X23	Y23	Z23	X24	Y24	Z24	X25	Y25	Z25	X26	Y26	Z26	X27	Y27	Z27	X28	Y28	Z28	X29	Y29	Z29	X30	Y30	Z30	X31	Y31	Z31	X32	Y32	Z32	X33	Y33	Z33	

1	6.760000000000	839.981946008328	995.166516623923	538.105240104151	1017.651579961836	1435.349006918052	369.615897195546	1105.838702482661	1368.234049249538	539.194025202145	1001.609873935158	1436.040533145844	704.239147931837	989.574529132359	1494.144905312767	526.975788452278	1065.769701132793	946.543304001083	670.664902998195	1068.839930493246	960.152781028670	395.650068010670	1113.759413936740	744.678400274438	638.509523279024	1031.076190624140	630.724698730003	688.593940808439	1112.707049283576	582.736944348393	611.331592835520	1113.548301096763	493.439401861601	613.729738859929	1136.218048176133	756.260258314936	429.853370696972	1079.712166503346	632.379985586262	352.526323010455	1169.146814532512	558.849560906070	424.116663905293	1167.760747965505	467.553712769141	414.675760159239	1090.806055143983	412.347518122712	400.573296091635	945.674938890123	396.368479847170	346.383587573476	910.692150773870	267.406935013458	392.169784245068	1084.220949497924	404.322598513633	616.365807626399	1009.821095256355	299.364211653447	670.573532031252	1052.894186454250	206.126271590450	606.426423124871	919.224880342999	43.576515242963	564.872263406766	1088.484278712175	97.421413476295	610.957562505190	998.164769843558	36.960644901427	643.889317243069	1206.739291359161	44.605266791888	645.496020797338	714.249846404626	245.576980565228	425.334840520108	757.854055055746	185.998010682340	345.070883472137	861.817329918153	164.149455718903	366.364890915032	905.621235850969	35.053725977906	337.308882183920	1035.142918496115	1081.205396364182	255.291419214844	1209.929894948936	884.444885646169	254.643754340883	1005.964476641121	1093.948805448106	842.481707822383	1221.426485484713	949.441997747248	869.271633950938	
2	6.779071428571	839.329891735289	994.442406927679	542.009867350735	1015.276343309948	1433.963138920549	370.842962801453	1105.610558478792	1367.486654201875	539.497827104581	1003.654969837194	1435.775949111817	705.688321207712	989.196584431019	1493.485599808961	528.148649152676	1066.511615674384	945.797209287072	672.621601010638	1066.327001423915	959.709695254479	397.861031006395	1114.659059862265	744.008118182211	639.926797997361	1032.128972908880	629.692024768278	689.787304090601	1113.559234092737	581.919045278561	612.221100165254	1114.401535137383	491.955718735369	614.320890040521	1137.850061299170	759.269657546393	432.408494139080	1084.503374311136	634.457579836151	354.974021827965	1175.684018312384	563.109927369643	426.472233499317	1176.674686952093	471.847494493959	417.007975652301	1101.119416271564	415.029385100558	402.776975755775	956.068113116464	395.313300364853	349.546373298458	925.159822595199	265.282087080151	395.100598080788	1083.474900870323	403.055818146389	616.593367340611	1007.917750655630	298.965669978306	670.911429589751	1049.267943493487	205.397338272621	606.336109773733	913.359320494607	43.716358585501	564.928553700884	1082.803006963008	97.358346031613	610.982276065107	992.339734181662	37.027023211134	643.895731555808	1200.954201210911	44.238804790428	645.660151417502	729.507743633464	235.271873619670	429.692873480012	775.011860887445	179.769523750308	347.972052432383	879.672915897844	162.636175023338	368.424242053580	929.215495414782	36.846241921507	336.332124716517	1025.895728176271	1078.727526070067	259.345187434377	1178.952286167338	869.534960831583	258.468009136406	1018.634604147295	1094.709925234512	844.024779654451	1241.537318761094	965.435654420524	866.989658072979	
3	6.798142857143	838.623199149640	993.696048579079	545.945636650248	1012.849083803432	1432.505507903943	372.045096203343	1105.387701247870	1366.660490823839	539.732914570649	1005.799081230121	1435.463489583365	707.097144764414	988.823561302669	1492.768086727921	529.277330454911	1067.229029364934	944.994292036037	674.527590384569	1063.779001539205	959.219785837342	400.007032110018	1115.471753003352	743.278938959571	641.267277063331	1033.137271429189	628.608738711100	690.963012361487	1114.339880536671	581.048553987829	613.053634935324	1115.181026598826	490.414820491644	614.867466108887	1139.345466182382	762.221377000925	434.913913614062	1089.135665569191	636.494030502939	357.407745705465	1182.017473544427	567.340445916510	428.824205327133	1185.433726947175	476.186278146380	419.328238888435	1111.500002204917	417.674678453017	404.932265870149	966.708594020247	393.702387951519	352.674236383913	940.405141140277	262.597986722919	397.947272269707	1082.638541479990	401.735602146753	616.799381935139	1005.917901314075	298.531907242912	671.237955422762	1045.519938721785	204.632415810684	606.233247117475	907.349417076146	43.847014484648	564.979688641953	1076.971646384530	97.294323131701	611.006423629131	986.374433236892	37.091313591617	643.908626143913	1195.023731595101	43.880877963261	645.810506721942	745.928310615899	223.675661919120	433.932085061263	793.401167026655	172.495992252353	350.767936674229	898.667088318629	160.497768319648	370.412460610119	954.305525399748	38.432830381002	335.277930533336	1016.099330613905	1076.281906404280	263.288979191649	1147.366654205708	855.184083425574	262.373261189299	1031.601707619528	1095.552809426125	845.466724993354	1261.761853473884	981.908414109423	864.382887868837	
4	6.817214285714	837.868688794250	992.960705183003	549.810221002429	1010.410311788521	1431.009236211990	373.168818993478	1105.178916581873	1365.763200725346	539.845740479989	1008.032903002956	1435.110458183156	708.390935463994	988.474572507814	1492.006399022176	530.291817304495	1067.892739407464	944.147046773092	676.293586657391	1061.250225269044	958.693020908669	401.985633662137	1116.113980274017	742.490024177551	642.452754730438	1034.015360639804	627.496601241171	692.074514141388	1114.949371250990	580.132039547029	613.776516141837	1115.774733916010	488.850050312213	615.331464975932	1140.561233795741	764.996776263202	437.260402104587	1093.348114858075	638.414709334524	359.721890666966	1187.810252906518	571.393805716914	431.074463549139	1193.654941323560	480.472486395579	421.534251994888	1121.632071366643	420.208969758505	406.934949149981	977.418510967901	391.338734235485	355.614160393532	956.363128804832	259.227757203655	400.568024541736	1081.651878452271	400.390987784260	616.970480020462	1003.799871321321	298.065275190261	671.538121843704	1041.678818676572	203.846234048308	606.118191658961	901.299097850805	43.961078323512	565.026794757748	1071.084011495761	97.230952090672	611.028119314886	980.369064861769	37.149624738890	643.929288828429	1189.047033692305	43.546299363283	645.938568353443	763.640899379206	210.618954056178	437.828539770556	813.134880076878	163.972057023158	353.311462320264	918.816902208026	157.562863272728	372.240399397911	980.874561056027	39.728036155749	334.207322217551	1005.754850542772	1074.009376832114	266.961095554892	1115.854443560069	842.142584947854	266.273501211051	1044.607870037815	1096.518478926421	846.702452069455	1281.499570434294	998.625520128118	861.349431478871	
